<?xml version="1.0" encoding="UTF-8"?>
<svg viewBox="0 0 612 792" xmlns="http://www.w3.org/2000/svg">
 <g fill="#5fbf00" stroke="#231f20" stroke-miterlimit="10" stroke-width=".5">
  <rect x="172.76" y="477.54" width="100" height="12"/>
  <path d="m272.76 472.54c0 2.762-2.867 5-6.4 5h-87.201c-3.533 0-6.398-2.238-6.398-5s2.865-5 6.398-5h87.201c3.533 0 6.4 2.238 6.4 5z"/>
  <rect x="177.76" y="462.54" width="90" height="5"/>
  <rect x="177.76" y="442.54" width="90" height="5"/>
  <path d="m267.76 447.54h-90s3.995-0.083984 3.995 7.457c0 7.543-3.995 7.543-3.995 7.543h90s-4.005 0.082001-4.005-7.459 4.005-7.541 4.005-7.541z"/>
  <path d="m222.76 339c2.762 0 5 2.867 5 6.4v87.201c0 3.533-2.238 6.398-5 6.398s-5-2.865-5-6.398v-87.201c0-3.533 2.239-6.4 5-6.4z"/>
  <path d="m207.43 339c2.209 0 4 2.867 4 6.4v87.201c0 3.533-1.791 6.398-4 6.398s-4-2.865-4-6.398v-87.201c0-3.533 1.791-6.4 4-6.4z"/>
  <path d="m196.43 339c1.657 0 3 2.867 3 6.4v87.201c0 3.533-1.343 6.398-3 6.398s-3-2.865-3-6.398v-87.201c0-3.533 1.343-6.4 3-6.4z"/>
  <path d="m187.76 339c1.104 0 2 2.867 2 6.4v87.201c0 3.533-0.896 6.398-2 6.398-1.105 0-2-2.865-2-6.398v-87.201c0-3.533 0.895-6.4 2-6.4z"/>
  <path d="m181.76 339c0.552 0 1 2.867 1 6.4v87.201c0 3.533-0.448 6.398-1 6.398-0.55301 0-1-2.865-1-6.398v-87.201c0-3.533 0.44699-6.4 1-6.4z"/>
  <line x1="179.76" x2="179.76" y1="335.46" y2="442.54"/>
  <path d="m238.09 339c-2.21 0-4 2.867-4 6.4v87.201c0 3.533 1.79 6.398 4 6.398s4-2.865 4-6.398v-87.201c0-3.533-1.79-6.4-4-6.4z"/>
  <path d="m249.09 339c-1.657 0-3 2.867-3 6.4v87.201c0 3.533 1.343 6.398 3 6.398s3-2.865 3-6.398v-87.201c0-3.533-1.343-6.4-3-6.4z"/>
  <path d="m257.76 339c-1.105 0-2 2.867-2 6.4v87.201c0 3.533 0.89499 6.398 2 6.398 1.104 0 2-2.865 2-6.398v-87.201c0-3.533-0.896-6.4-2-6.4z"/>
  <path d="m263.76 339c-0.55301 0-1 2.867-1 6.4v87.201c0 3.533 0.44699 6.398 1 6.398 0.552 0 1-2.865 1-6.398v-87.201c0-3.533-0.448-6.4-1-6.4z"/>
  <line x1="265.76" x2="265.76" y1="335.46" y2="442.54"/>
  <path d="m272.76 305.46c0 2.762-2.867 5-6.4 5h-87.201c-3.533 0-6.398-2.238-6.398-5s2.865-5.001 6.398-5.001h87.201c3.533 0 6.4 2.239 6.4 5.001z"/>
  <rect x="177.76" y="330.46" width="90" height="5"/>
  <rect x="177.76" y="310.46" width="90" height="5"/>
  <path d="m267.76 315.46h-90s3.995-0.083984 3.995 7.457c0 7.543-3.995 7.543-3.995 7.543h90s-4.005 0.082001-4.005-7.459 4.005-7.541 4.005-7.541z"/>
  <rect x="172.76" y="288.46" width="100" height="12"/>
 </g>
 <g fill="#5fbf00" stroke="#231f20" stroke-miterlimit="10" stroke-width=".5">
  <rect x="359" y="527.54" width="100" height="12"/>
  <path d="m459 522.54c0 2.762-2.866 5-6.399 5h-87.201c-3.533 0-6.399-2.238-6.399-5s2.866-5 6.399-5h87.201c3.533 0 6.399 2.238 6.399 5z"/>
  <rect x="364" y="512.54" width="90" height="5"/>
  <rect x="364" y="492.54" width="90" height="5"/>
  <path d="m454 497.54h-90s3.996-0.084015 3.996 7.457c0 7.543-3.996 7.543-3.996 7.543h90s-4.004 0.08197-4.004-7.459 4.004-7.541 4.004-7.541z"/>
 </g>
 <g fill="#5fbf00" stroke="#231f20" stroke-miterlimit="10" stroke-width=".5">
  <path d="m459 255.46c0 2.762-2.866 5-6.399 5h-87.201c-3.533 0-6.399-2.238-6.399-5s2.866-5.001 6.399-5.001h87.201c3.533 0 6.399 2.239 6.399 5.001z"/>
  <rect x="364" y="280.46" width="90" height="4.998"/>
  <rect x="364" y="260.46" width="90" height="5"/>
  <path d="m454 265.46h-90s3.995-0.083984 3.995 7.457c0 7.543-3.995 7.543-3.995 7.543h90s-4.005 0.079987-4.005-7.459c0-7.541 4.005-7.541 4.005-7.541z"/>
  <rect x="359" y="238.46" width="100" height="12"/>
 </g>
 <g fill="#5fbf00">
  <path d="m404 484c0 2.762 2.238 5 5 5s5-2.238 5-5v-190c0-2.762-2.238-5-5-5s-5 2.238-5 5v190z"/>
  <path d="m404 484c0 2.762 2.238 5 5 5s5-2.238 5-5v-190c0-2.762-2.238-5-5-5s-5 2.238-5 5v190z" stroke="#231f20" stroke-miterlimit="10" stroke-width=".5"/>
  <path d="m389.67 485c0 2.209 1.791 4 4 4s4-1.791 4-4v-192c0-2.209-1.791-4-4-4s-4 1.791-4 4v192z"/>
  <path d="m389.67 485c0 2.209 1.791 4 4 4s4-1.791 4-4v-192c0-2.209-1.791-4-4-4s-4 1.791-4 4v192z" stroke="#231f20" stroke-miterlimit="10" stroke-width=".5"/>
  <path d="m379.67 486c0 1.657 1.343 3 3 3s3-1.343 3-3v-194c0-1.657-1.343-3-3-3s-3 1.343-3 3v194z"/>
  <path d="m379.67 486c0 1.657 1.343 3 3 3s3-1.343 3-3v-194c0-1.657-1.343-3-3-3s-3 1.343-3 3v194z" stroke="#231f20" stroke-miterlimit="10" stroke-width=".5"/>
  <path d="m372 487c0 1.104 0.896 2 2 2s2-0.896 2-2v-196c0-1.104-0.896-2-2-2s-2 0.896-2 2v196z"/>
  <path d="m372 487c0 1.104 0.896 2 2 2s2-0.896 2-2v-196c0-1.104-0.896-2-2-2s-2 0.896-2 2v196z" stroke="#231f20" stroke-miterlimit="10" stroke-width=".5"/>
  <path d="m367 488c0 0.55301 0.44699 1 1 1s1-0.44699 1-1v-198c0-0.55301-0.44699-1-1-1s-1 0.44699-1 1v198z"/>
  <path d="m367 488c0 0.55301 0.44699 1 1 1s1-0.44699 1-1v-198c0-0.55301-0.44699-1-1-1s-1 0.44699-1 1v198z" stroke="#231f20" stroke-miterlimit="10" stroke-width=".5"/>
  <line x1="366" x2="366" y1="285.46" y2="492.54" stroke="#231f20" stroke-miterlimit="10" stroke-width=".5"/>
  <path d="m420.33 485c0 2.209 1.791 4 4 4s4-1.791 4-4v-192c0-2.209-1.791-4-4-4s-4 1.791-4 4v192z"/>
  <path d="m420.33 485c0 2.209 1.791 4 4 4s4-1.791 4-4v-192c0-2.209-1.791-4-4-4s-4 1.791-4 4v192z" stroke="#231f20" stroke-miterlimit="10" stroke-width=".5"/>
  <path d="m432.33 486c0 1.657 1.343 3 3 3s3-1.343 3-3v-194c0-1.657-1.343-3-3-3s-3 1.343-3 3v194z"/>
  <path d="m432.33 486c0 1.657 1.343 3 3 3s3-1.343 3-3v-194c0-1.657-1.343-3-3-3s-3 1.343-3 3v194z" stroke="#231f20" stroke-miterlimit="10" stroke-width=".5"/>
  <path d="m442 487c0 1.104 0.896 2 2 2s2-0.896 2-2v-196c0-1.104-0.896-2-2-2s-2 0.896-2 2v196z"/>
  <path d="m442 487c0 1.104 0.896 2 2 2s2-0.896 2-2v-196c0-1.104-0.896-2-2-2s-2 0.896-2 2v196z" stroke="#231f20" stroke-miterlimit="10" stroke-width=".5"/>
  <path d="m449 488c0 0.55301 0.44699 1 1 1s1-0.44699 1-1v-198c0-0.55301-0.44699-1-1-1s-1 0.44699-1 1v198z"/>
  <path d="m449 488c0 0.55301 0.44699 1 1 1s1-0.44699 1-1v-198c0-0.55301-0.44699-1-1-1s-1 0.44699-1 1v198z" stroke="#231f20" stroke-miterlimit="10" stroke-width=".5"/>
  <line x1="452" x2="452" y1="285.46" y2="492.54" stroke="#231f20" stroke-miterlimit="10" stroke-width=".5"/>
 </g>
</svg>
