<?xml version="1.0" encoding="iso-8859-1"?>
<!-- Generator: Adobe Illustrator 25.2.0, SVG Export Plug-In . SVG Version: 6.00 Build 0)  -->
<svg version="1.1" xmlns="http://www.w3.org/2000/svg" xmlns:xlink="http://www.w3.org/1999/xlink" x="0px" y="0px"
	 viewBox="0 0 1920 1080" style="enable-background:new 0 0 1920 1080;" xml:space="preserve">
<g id="Layer_1">
	<g>
		<g>
			<rect x="143.077" y="65.561" style="fill:#FFF1D1;" width="228.233" height="958.578"/>
		</g>
		<path style="fill:#E8DCC4;" d="M260.609,1014.687h-10.235c-6.6,0-12-5.4-12-12V99.189c0-6.6,5.4-12,12-12h10.235
			c6.6,0,12,5.4,12,12v903.499C272.609,1009.287,267.209,1014.687,260.609,1014.687z"/>
		<path style="fill:#E8DCC4;" d="M194.517,1006.239h-10.235c-6.6,0-12-5.4-12-12V90.819c0-6.6,5.4-12,12-12h10.235
			c6.6,0,12,5.4,12,12v903.42C206.517,1000.839,201.117,1006.239,194.517,1006.239z"/>
		<path style="fill:#E8DCC4;" d="M331.312,1006.239h-10.235c-6.6,0-12-5.4-12-12V90.564c0-6.6,5.4-12,12-12h10.235
			c6.6,0,12,5.4,12,12v903.675C343.312,1000.839,337.912,1006.239,331.312,1006.239z"/>
		<g>
			<rect x="113.831" y="32.78" style="fill:#FFF1D1;" width="285.147" height="32.78"/>
		</g>
		<g>
			<rect x="80.919" style="fill:#FFF1D1;" width="351.655" height="32.78"/>
		</g>
		<g>
			<rect x="114.278" y="1014.687" style="fill:#FFF1D1;" width="285.147" height="32.78"/>
		</g>
		<g>
			<rect x="81.366" y="1047.468" style="fill:#FFF1D1;" width="351.655" height="32.78"/>
		</g>
		<g>
			<rect x="1549.137" y="65.561" style="fill:#FFF1D1;" width="228.233" height="958.578"/>
		</g>
		<path style="fill:#E8DCC4;" d="M1666.67,1014.687h-10.235c-6.6,0-12-5.4-12-12V99.189c0-6.6,5.4-12,12-12h10.235
			c6.6,0,12,5.4,12,12v903.499C1678.67,1009.287,1673.27,1014.687,1666.67,1014.687z"/>
		<path style="fill:#E8DCC4;" d="M1600.578,1006.239h-10.235c-6.6,0-12-5.4-12-12V90.819c0-6.6,5.4-12,12-12h10.235
			c6.6,0,12,5.4,12,12v903.42C1612.578,1000.839,1607.177,1006.239,1600.578,1006.239z"/>
		<path style="fill:#E8DCC4;" d="M1737.373,1006.239h-10.235c-6.6,0-12-5.4-12-12V90.564c0-6.6,5.4-12,12-12h10.235
			c6.6,0,12,5.4,12,12v903.675C1749.373,1000.839,1743.973,1006.239,1737.373,1006.239z"/>
		<g>
			<rect x="1519.891" y="32.78" style="fill:#FFF1D1;" width="285.147" height="32.78"/>
		</g>
		<g>
			<rect x="1486.979" style="fill:#FFF1D1;" width="351.655" height="32.78"/>
		</g>
		<g>
			<rect x="1520.338" y="1014.687" style="fill:#FFF1D1;" width="285.147" height="32.78"/>
		</g>
		<g>
			<rect x="1487.426" y="1047.468" style="fill:#FFF1D1;" width="351.655" height="32.78"/>
		</g>
		<g>
			<path style="fill:#E8DCC4;" d="M1535.958,275.504c-374.588,102.476-769.822,102.476-1144.41,0
				c18.808-68.749,37.615-137.498,56.423-206.247c337.651,92.371,693.913,92.371,1031.564,0
				C1498.343,138.006,1517.151,206.755,1535.958,275.504z"/>
		</g>
		<g>
			<path style="fill:#FFF1D1;" d="M409.374,282.723l-25.744-5.504c-8.447-1.806-13.823-9.937-11.947-18.069l41.913-181.728
				c1.876-8.132,10.321-13.308,18.768-11.503l25.744,5.504c8.447,1.806,13.823,9.937,11.947,18.069L428.142,271.22
				C426.266,279.353,417.821,284.529,409.374,282.723z"/>
		</g>
		<path style="fill:#E8DCC4;" d="M397.746,280.237l-2.488-0.532c-8.447-1.806-13.823-9.937-11.947-18.069l41.913-181.728
			c1.876-8.132,10.321-13.308,18.768-11.503l2.488,0.532c8.447,1.806,13.823,9.937,11.947,18.069l-41.913,181.728
			C414.638,276.867,406.193,282.043,397.746,280.237z"/>
		<g>
			<path style="fill:#FFF1D1;" d="M1488.083,67.768l-25.744,5.504c-8.447,1.806-13.823,9.937-11.947,18.069l41.913,181.728
				c1.875,8.132,10.321,13.308,18.768,11.503l25.744-5.504c8.447-1.806,13.823-9.937,11.947-18.069l-41.913-181.728
				C1504.975,71.139,1496.53,65.962,1488.083,67.768z"/>
		</g>
		<path style="fill:#E8DCC4;" d="M1476.455,70.254l-2.488,0.532c-8.447,1.806-13.823,9.937-11.948,18.069l41.913,181.728
			c1.876,8.132,10.321,13.308,18.768,11.503l2.488-0.532c8.447-1.806,13.823-9.937,11.947-18.069l-41.913-181.728
			C1493.347,73.625,1484.902,68.448,1476.455,70.254z"/>
	</g>
</g>
<g id="Layer_3">
	<g>
		<path style="fill:#00A237;" d="M1130.037,189.259c0,0-42.992,48.419-3.522,79.492
			C1126.515,268.751,1168.405,245.119,1130.037,189.259z"/>
		<path style="fill:#00A237;" d="M1075.326,209.499c0,0-22.591,60.682,25.44,75.393
			C1100.766,284.892,1131.286,247.72,1075.326,209.499z"/>
		<path style="fill:#00A237;" d="M1129.102,279.546c0,0-60.728,22.467-40.542,68.467
			C1088.56,348.013,1136.643,346.893,1129.102,279.546z"/>
		<path style="fill:#00A237;" d="M1071.306,271.636c0,0-48.507,42.893-13.063,78.49
			C1058.243,350.126,1102.673,331.707,1071.306,271.636z"/>
		<path style="fill:#00A237;" d="M1084.454,368.01c0,0-63.758-11.298-69.582,38.596
			C1014.872,406.606,1056.931,429.937,1084.454,368.01z"/>
		<path style="fill:#00A237;" d="M1038.577,331.979c0,0-63.532,12.503-50.934,61.131
			C987.643,393.11,1035.29,399.667,1038.577,331.979z"/>
		<path style="fill:#00A237;" d="M1109.801,119.681c0,0-37.515,52.776,5.077,79.408
			C1114.878,199.089,1153.973,171.074,1109.801,119.681z"/>
		<path style="fill:#00A237;" d="M1054.709,137.433c0,0-14.121,63.193,35.466,71.229
			C1090.175,208.662,1115.351,167.681,1054.709,137.433z"/>
		<path style="fill:#00A237;" d="M1066.14,49.17c0,0-23.146,60.473,24.748,75.623C1090.888,124.794,1121.748,87.903,1066.14,49.17z"
			/>
		<path style="fill:#00A237;" d="M1010.957,82.968c0,0,10.03,63.969,59.11,53.267C1070.067,136.235,1078.466,88.878,1010.957,82.968
			z"/>
		<path style="fill:#00A237;" d="M788.192,197.667c0,0,44.963,46.594,6.816,79.277C795.008,276.944,752.174,255.07,788.192,197.667z
			"/>
		<path style="fill:#00A237;" d="M843.695,215.62c0,0,25.089,59.693-22.291,76.384C821.405,292.003,789.369,256.13,843.695,215.62z"
			/>
		<path style="fill:#00A237;" d="M792.871,287.838c0,0,61.608,19.929,43.347,66.726C836.218,354.564,788.13,355.439,792.871,287.838
			z"/>
		<path style="fill:#00A237;" d="M850.289,277.537c0,0,50.244,40.844,16.308,77.881
			C866.596,355.417,821.441,338.857,850.289,277.537z"/>
		<path style="fill:#00A237;" d="M841.15,374.373c0,0,63.234-13.933,71.123,35.677C912.273,410.05,871.218,435.105,841.15,374.373z"
			/>
		<path style="fill:#00A237;" d="M885.493,336.47c0,0,63.996,9.857,53.426,58.966C938.919,395.437,891.585,403.964,885.493,336.47z"
			/>
		<path style="fill:#00A237;" d="M805.525,127.309c0,0,39.672,51.174-1.779,79.55C803.745,206.859,763.522,180.49,805.525,127.309z"
			/>
		<path style="fill:#00A237;" d="M861.305,142.761c0,0,16.73,62.552-32.481,72.638C828.825,215.399,801.97,175.498,861.305,142.761z
			"/>
		<path style="fill:#00A237;" d="M846.224,55.048c0,0,25.635,59.461-21.59,76.585C824.634,131.633,792.27,96.054,846.224,55.048z"/>
		<path style="fill:#00A237;" d="M902.761,86.528c0,0-7.368,64.33-56.85,55.672C845.911,142.201,835.555,95.233,902.761,86.528z"/>
	</g>
</g>
<g id="Layer_4">
	<g>
		<linearGradient id="SVGID_1_" gradientUnits="userSpaceOnUse" x1="857.0679" y1="874.4167" x2="857.0679" y2="647.4971">
			<stop  offset="0" style="stop-color:#FCEE21"/>
			<stop  offset="0.0848" style="stop-color:#F8E122"/>
			<stop  offset="0.2416" style="stop-color:#EEBF24"/>
			<stop  offset="0.453" style="stop-color:#DE8827"/>
			<stop  offset="0.7084" style="stop-color:#C73C2C"/>
			<stop  offset="0.7761" style="stop-color:#C1272D"/>
		</linearGradient>
		<path style="fill:url(#SVGID_1_);" d="M836.948,874.417c0,0,78.468-40.294,59.381-95.434
			c-19.087-55.139-146.331-63.622-142.09-131.486c0,0,29.691,27.57,47.717,29.69c18.026,2.121,136.788,27.57,155.874,72.105
			C976.918,793.828,864.518,853.209,836.948,874.417z"/>
		<linearGradient id="SVGID_2_" gradientUnits="userSpaceOnUse" x1="940.0637" y1="847.1396" x2="940.0637" y2="447.8546">
			<stop  offset="0" style="stop-color:#FCEE21"/>
			<stop  offset="0.0848" style="stop-color:#F8E122"/>
			<stop  offset="0.2416" style="stop-color:#EEBF24"/>
			<stop  offset="0.453" style="stop-color:#DE8827"/>
			<stop  offset="0.7084" style="stop-color:#C73C2C"/>
			<stop  offset="0.7761" style="stop-color:#C1272D"/>
		</linearGradient>
		<path style="fill:url(#SVGID_2_);" d="M862.397,847.14c0,0,116.641-63.622,110.279-116.641
			c-6.362-53.019-99.675-63.622-110.279-101.796c-10.604-38.173-46.656-61.502-36.053-131.486c0,0,12.724,74.226,40.294,80.588
			c27.57,6.362,38.173-74.226,6.362-118.762s61.502,55.139,72.105,101.796c10.604,46.656-24.216,55.139-19.531,67.864
			c4.685,12.724,78.911,19.087,121.326,55.139C1089.317,719.895,970.555,802.604,862.397,847.14z"/>
		<linearGradient id="SVGID_3_" gradientUnits="userSpaceOnUse" x1="1035.7982" y1="863.626" x2="1035.7982" y2="537.511">
			<stop  offset="0" style="stop-color:#FCEE21"/>
			<stop  offset="0.0848" style="stop-color:#F8E122"/>
			<stop  offset="0.2416" style="stop-color:#EEBF24"/>
			<stop  offset="0.453" style="stop-color:#DE8827"/>
			<stop  offset="0.7084" style="stop-color:#C73C2C"/>
			<stop  offset="0.7761" style="stop-color:#C1272D"/>
		</linearGradient>
		<path style="fill:url(#SVGID_3_);" d="M1048.86,537.511c0,0-72.105,23.328-61.502,50.898c10.604,27.57,65.743,57.26,74.226,97.554
			c8.483,40.294-19.087,135.728-101.796,169.659c-82.709,33.932,118.762-48.777,161.177-84.83
			c42.415-36.053-55.139-167.539-76.347-180.263C1023.411,577.805,1048.86,537.511,1048.86,537.511z"/>
		
			<linearGradient id="SVGID_4_" gradientUnits="userSpaceOnUse" x1="674.6725" y1="891.0604" x2="674.6725" y2="721.7037" gradientTransform="matrix(-1 0 0 1 1717.9407 0)">
			<stop  offset="0" style="stop-color:#FCEE21"/>
			<stop  offset="0.0848" style="stop-color:#F8E122"/>
			<stop  offset="0.2416" style="stop-color:#EEBF24"/>
			<stop  offset="0.453" style="stop-color:#DE8827"/>
			<stop  offset="0.7084" style="stop-color:#C73C2C"/>
			<stop  offset="0.7761" style="stop-color:#C1272D"/>
		</linearGradient>
		<path style="fill:url(#SVGID_4_);" d="M1058.284,891.06c0,0-58.563-30.073-44.318-71.225
			c14.245-41.152,109.211-47.483,106.046-98.132c0,0-22.16,20.576-35.613,22.159c-13.453,1.583-102.089,20.576-116.334,53.814
			C953.821,830.915,1037.708,875.233,1058.284,891.06z"/>
		
			<linearGradient id="SVGID_5_" gradientUnits="userSpaceOnUse" x1="736.6147" y1="870.7028" x2="736.6147" y2="572.7046" gradientTransform="matrix(-1 0 0 1 1717.9407 0)">
			<stop  offset="0" style="stop-color:#FCEE21"/>
			<stop  offset="0.0848" style="stop-color:#F8E122"/>
			<stop  offset="0.2416" style="stop-color:#EEBF24"/>
			<stop  offset="0.453" style="stop-color:#DE8827"/>
			<stop  offset="0.7084" style="stop-color:#C73C2C"/>
			<stop  offset="0.7761" style="stop-color:#C1272D"/>
		</linearGradient>
		<path style="fill:url(#SVGID_5_);" d="M1039.291,870.703c0,0-87.053-47.483-82.304-87.053
			c4.748-39.569,74.39-47.483,82.304-75.973c7.914-28.49,34.821-45.9,26.907-98.132c0,0-9.497,55.397-30.073,60.145
			c-20.576,4.748-28.49-55.397-4.748-88.635c23.742-33.238-45.9,41.152-53.814,75.973c-7.914,34.821,18.073,41.152,14.576,50.649
			c-3.497,9.497-58.894,14.245-90.549,41.152C869.934,775.736,958.569,837.465,1039.291,870.703z"/>
		
			<linearGradient id="SVGID_6_" gradientUnits="userSpaceOnUse" x1="808.0643" y1="883.007" x2="808.0643" y2="639.6179" gradientTransform="matrix(-1 0 0 1 1717.9407 0)">
			<stop  offset="0" style="stop-color:#FCEE21"/>
			<stop  offset="0.0848" style="stop-color:#F8E122"/>
			<stop  offset="0.2416" style="stop-color:#EEBF24"/>
			<stop  offset="0.453" style="stop-color:#DE8827"/>
			<stop  offset="0.7084" style="stop-color:#C73C2C"/>
			<stop  offset="0.7761" style="stop-color:#C1272D"/>
		</linearGradient>
		<path style="fill:url(#SVGID_6_);" d="M900.128,639.618c0,0,53.814,17.41,45.9,37.987c-7.914,20.576-49.066,42.735-55.397,72.808
			c-6.331,30.073,14.245,101.297,75.973,126.622c61.728,25.324-88.635-36.404-120.291-63.311s41.152-125.039,56.98-134.536
			C919.121,669.691,900.128,639.618,900.128,639.618z"/>
		<path style="fill:#422424;" d="M737.31,806.382c-0.002,0.332-0.013,0.662-0.013,0.994c0,122.996,99.708,222.703,222.703,222.703
			c122.99,0,222.694-99.699,222.703-222.688L737.31,806.382z"/>
		
			<rect x="849.38" y="834.459" transform="matrix(0.7071 0.7071 -0.7071 0.7071 944.3572 -327.0277)" style="fill:#422424;" width="35.112" height="283.935"/>
		
			<rect x="1005.121" y="834.459" transform="matrix(-0.7071 0.7071 -0.7071 -0.7071 2436.2556 943.7222)" style="fill:#422424;" width="35.112" height="283.935"/>
	</g>
</g>
<g id="Layer_2" style="display:none;">
	<path style="display:inline;fill:#00A237;" d="M1347.318-1176.276c0,0-112.854,127.101-9.245,208.667
		C1338.073-967.608,1448.036-1029.643,1347.318-1176.276z"/>
	<path style="display:inline;fill:#00A237;" d="M1203.701-1123.147c0,0-59.303,159.292,66.78,197.909
		C1270.48-925.238,1350.598-1022.815,1203.701-1123.147z"/>
	<path style="display:inline;fill:#00A237;" d="M1344.864-939.27c0,0-159.412,58.977-106.424,179.726
		C1238.441-759.544,1364.66-762.484,1344.864-939.27z"/>
	<path style="display:inline;fill:#00A237;" d="M1193.15-960.036c0,0-127.331,112.594-34.292,206.038
		C1158.859-753.999,1275.488-802.347,1193.15-960.036z"/>
	<path style="display:inline;fill:#00A237;" d="M1227.662-707.052c0,0-167.365-29.658-182.654,101.316
		C1045.008-605.736,1155.413-544.493,1227.662-707.052z"/>
	<path style="display:inline;fill:#00A237;" d="M1107.235-801.634c0,0-166.773,32.821-133.703,160.471
		C973.531-641.163,1098.606-623.952,1107.235-801.634z"/>
	<path style="display:inline;fill:#00A237;" d="M1294.198-1358.919c0,0-98.479,138.537,13.328,208.446
		C1307.526-1150.473,1410.152-1224.012,1294.198-1358.919z"/>
	<path style="display:inline;fill:#00A237;" d="M1149.581-1312.32c0,0-37.067,165.881,93.098,186.976
		C1242.68-1125.344,1308.769-1232.919,1149.581-1312.32z"/>
	<path style="display:inline;fill:#00A237;" d="M1179.587-1544.011c0,0-60.759,158.742,64.964,198.512
		C1244.551-1345.499,1325.559-1442.338,1179.587-1544.011z"/>
	<path style="display:inline;fill:#00A237;" d="M1034.731-1455.291c0,0,26.329,167.921,155.165,139.825
		C1189.896-1315.466,1211.945-1439.779,1034.731-1455.291z"/>
	<path style="display:inline;fill:#00A237;" d="M449.971-1154.205c0,0,118.029,122.31,17.892,208.104
		C467.862-946.101,355.421-1003.521,449.971-1154.205z"/>
	<path style="display:inline;fill:#00A237;" d="M595.668-1107.079c0,0,65.859,156.695-58.513,200.508
		C537.154-906.57,453.059-1000.74,595.668-1107.079z"/>
	<path style="display:inline;fill:#00A237;" d="M462.252-917.505c0,0,161.721,52.314,113.787,175.157
		C576.039-742.348,449.806-740.05,462.252-917.505z"/>
	<path style="display:inline;fill:#00A237;" d="M612.975-944.546c0,0,131.891,107.216,42.808,204.438
		C655.783-740.108,537.249-783.578,612.975-944.546z"/>
	<path style="display:inline;fill:#00A237;" d="M588.986-690.348c0,0,165.991-36.574,186.699,93.653
		C775.685-596.695,667.915-530.926,588.986-690.348z"/>
	<path style="display:inline;fill:#00A237;" d="M705.387-789.844c0,0,167.991,25.876,140.244,154.787
		C845.631-635.057,721.377-612.673,705.387-789.844z"/>
	<path style="display:inline;fill:#00A237;" d="M495.469-1338.895c0,0,104.14,134.333-4.671,208.82
		C490.798-1130.075,385.211-1199.294,495.469-1338.895z"/>
	<path style="display:inline;fill:#00A237;" d="M641.894-1298.334c0,0,43.915,164.201-85.263,190.677
		C556.631-1107.658,486.137-1212.398,641.894-1298.334z"/>
	<path style="display:inline;fill:#00A237;" d="M602.304-1528.581c0,0,67.291,156.085-56.674,201.036
		C545.63-1327.545,460.675-1420.941,602.304-1528.581z"/>
	<path style="display:inline;fill:#00A237;" d="M750.715-1445.946c0,0-19.342,168.868-149.232,146.141
		C601.483-1299.805,574.298-1423.097,750.715-1445.946z"/>
</g>
</svg>
